<svg xmlns="http://www.w3.org/2000/svg" xmlns:xlink="http://www.w3.org/1999/xlink" id="Layer_1" x="0px" y="0px" viewBox="0 0 1219.7 300" style="enable-background:new 0 0 1219.7 300;" xml:space="preserve"><style type="text/css">	.st0{fill:#3A3A3A;}	.st1{fill:#007C7B;}	.st2{fill:#4C4C4C;}	.st3{fill:#666666;}	.st4{fill:#025155;}	.st5{fill:#474747;}</style><path class="st0" d="M323.1,247.4l5.5,1.8c-0.8,3.1-2.2,5.4-4.2,6.9c-1.9,1.5-4.4,2.3-7.4,2.3c-3.7,0-6.8-1.3-9.1-3.9 c-2.4-2.6-3.6-6.1-3.6-10.5c0-4.7,1.2-8.4,3.6-11s5.6-3.9,9.5-3.9c3.4,0,6.2,1,8.3,3.1c1.3,1.2,2.2,2.9,2.9,5.2l-5.6,1.4 c-0.3-1.5-1-2.6-2.1-3.5c-1-0.9-2.3-1.3-3.8-1.3c-2.1,0-3.7,0.8-5,2.3s-1.9,3.9-1.9,7.3c0,3.6,0.6,6.1,1.9,7.7 c1.3,1.5,2.9,2.3,5,2.3c1.5,0,2.8-0.5,3.9-1.4C321.8,251,322.6,249.4,323.1,247.4z"></path><path class="st0" d="M341.8,257.8v-28.3h11.9c3,0,5.2,0.3,6.5,0.8c1.4,0.5,2.4,1.4,3.2,2.7c0.8,1.3,1.2,2.8,1.2,4.5 c0,2.1-0.6,3.9-1.8,5.3c-1.2,1.4-3.1,2.3-5.5,2.6c1.2,0.7,2.2,1.5,3,2.4s1.9,2.4,3.2,4.6l3.4,5.5h-6.7l-4.1-6.2 c-1.4-2.2-2.4-3.6-3-4.2c-0.5-0.6-1.1-1-1.7-1.2s-1.5-0.3-2.8-0.3h-1.1v11.8H341.8z M347.4,241.4h4.2c2.7,0,4.4-0.1,5.1-0.3 s1.2-0.6,1.6-1.2s0.6-1.3,0.6-2.1c0-1-0.3-1.7-0.8-2.3s-1.2-1-2.1-1.1c-0.5-0.1-1.8-0.1-4.1-0.1h-4.4v7.1L347.4,241.4L347.4,241.4z"></path><path class="st0" d="M378.4,257.8v-28.3h20.7v4.8H384v6.3h14v4.8h-14v7.7h15.6v4.8h-21.2V257.8z"></path><path class="st0" d="M438,257.8h-6.1l-2.4-6.4h-11.2l-2.3,6.4h-6l10.9-28.3h6L438,257.8z M427.6,246.6l-3.8-10.5l-3.8,10.5H427.6z"></path><path class="st0" d="M452.8,257.8v-23.5h-8.3v-4.8h22.2v4.8h-8.3v23.5H452.8z"></path><path class="st0" d="M478.6,257.8v-28.3h5.6v28.3H478.6z"></path><path class="st0" d="M498.1,257.8v-28.3h5.5l11.4,18.9v-18.9h5.2v28.3h-5.7l-11.3-18.5v18.5H498.1z"></path><path class="st0" d="M547.6,247.4v-4.8h12.2v11.3c-1.2,1.2-2.9,2.2-5.1,3.1c-2.2,0.9-4.5,1.3-6.8,1.3c-2.9,0-5.5-0.6-7.6-1.9 c-2.2-1.2-3.8-3-4.9-5.3c-1.1-2.3-1.6-4.8-1.6-7.5c0-2.9,0.6-5.6,1.8-7.9c1.2-2.3,3-4.1,5.4-5.3c1.8-0.9,4-1.4,6.7-1.4 c3.5,0,6.2,0.7,8.1,2.2c1.9,1.5,3.2,3.5,3.8,6.1l-5.6,1.1c-0.4-1.4-1.1-2.5-2.2-3.3c-1.1-0.8-2.4-1.2-4.1-1.2 c-2.5,0-4.4,0.8-5.9,2.4c-1.5,1.6-2.2,3.9-2.2,7.1c0,3.4,0.7,5.9,2.2,7.6c1.5,1.7,3.4,2.5,5.8,2.5c1.2,0,2.4-0.2,3.6-0.7 c1.2-0.5,2.2-1,3.1-1.7v-3.6h-6.7V247.4z"></path><path class="st1" d="M579.5,253.7v-7.4h-7.3v-5.1h7.3v-7.4h4.9v7.4h7.3v5.1h-7.3v7.4H579.5z"></path><path class="st0" d="M604.6,257.8v-28.3h9c3.4,0,5.7,0.1,6.7,0.4c1.6,0.4,2.9,1.3,4,2.8c1.1,1.4,1.6,3.3,1.6,5.5 c0,1.7-0.3,3.2-0.9,4.4c-0.6,1.2-1.4,2.1-2.4,2.8s-1.9,1.1-2.9,1.3c-1.3,0.3-3.3,0.4-5.8,0.4h-3.7v10.7H604.6z M610.2,234.3v8h3.1 c2.2,0,3.7-0.1,4.5-0.4c0.7-0.3,1.3-0.8,1.8-1.4c0.4-0.6,0.6-1.4,0.6-2.2c0-1-0.3-1.9-0.9-2.6c-0.6-0.7-1.4-1.1-2.3-1.3 c-0.7-0.1-2-0.2-4.1-0.2L610.2,234.3L610.2,234.3z"></path><path class="st0" d="M639.1,257.8v-28.3H651c3,0,5.2,0.3,6.5,0.8c1.4,0.5,2.4,1.4,3.2,2.7s1.2,2.8,1.2,4.5c0,2.1-0.6,3.9-1.8,5.3 c-1.2,1.4-3.1,2.3-5.5,2.6c1.2,0.7,2.2,1.5,3,2.4s1.9,2.4,3.2,4.6l3.4,5.5h-6.7l-4.1-6.2c-1.4-2.2-2.4-3.6-3-4.2 c-0.5-0.6-1.1-1-1.7-1.2c-0.6-0.2-1.5-0.3-2.8-0.3h-1.1v11.8H639.1z M644.7,241.4h4.2c2.7,0,4.4-0.1,5.1-0.3 c0.7-0.2,1.2-0.6,1.6-1.2c0.4-0.6,0.6-1.3,0.6-2.1c0-1-0.3-1.7-0.8-2.3s-1.2-1-2.1-1.1c-0.5-0.1-1.8-0.1-4.1-0.1h-4.4L644.7,241.4 L644.7,241.4z"></path><path class="st0" d="M674.5,243.8c0-2.9,0.4-5.3,1.3-7.3c0.6-1.4,1.5-2.7,2.6-3.9c1.1-1.1,2.3-2,3.6-2.6c1.7-0.7,3.7-1.1,6-1.1 c4.1,0,7.4,1.3,9.9,3.9c2.5,2.6,3.7,6.2,3.7,10.8s-1.2,8.1-3.7,10.7c-2.5,2.6-5.7,3.9-9.8,3.9c-4.2,0-7.5-1.3-9.9-3.9 C675.7,251.8,674.5,248.3,674.5,243.8z M680.3,243.6c0,3.2,0.7,5.6,2.2,7.3s3.3,2.5,5.6,2.5c2.2,0,4.1-0.8,5.5-2.5 c1.4-1.6,2.2-4.1,2.2-7.4c0-3.2-0.7-5.7-2.1-7.3s-3.3-2.4-5.6-2.4s-4.2,0.8-5.6,2.4C681,237.9,680.3,240.3,680.3,243.6z"></path><path class="st0" d="M720.7,257.8v-23.5h-8.3v-4.8h22.2v4.8h-8.3v23.5H720.7z"></path><path class="st0" d="M746.7,257.8v-28.3h20.7v4.8h-15.1v6.3h14v4.8h-14v7.7h15.6v4.8h-21.2V257.8z"></path><path class="st0" d="M799,247.4l5.5,1.8c-0.8,3.1-2.2,5.4-4.2,6.9c-1.9,1.5-4.4,2.3-7.4,2.3c-3.7,0-6.8-1.3-9.1-3.9 c-2.4-2.6-3.6-6.1-3.6-10.5c0-4.7,1.2-8.4,3.6-11c2.4-2.6,5.6-3.9,9.5-3.9c3.4,0,6.2,1,8.3,3.1c1.3,1.2,2.2,2.9,2.9,5.2l-5.6,1.4 c-0.3-1.5-1-2.6-2.1-3.5c-1-0.9-2.3-1.3-3.8-1.3c-2.1,0-3.7,0.8-5,2.3s-1.9,3.9-1.9,7.3c0,3.6,0.6,6.1,1.9,7.7 c1.3,1.5,2.9,2.3,5,2.3c1.5,0,2.8-0.5,3.9-1.4C797.7,251,798.5,249.4,799,247.4z"></path><path class="st0" d="M824,257.8v-23.5h-8.3v-4.8h22.2v4.8h-8.3v23.5H824z"></path><path class="st0" d="M849.8,257.8v-28.3h5.6v28.3H849.8z"></path><path class="st0" d="M869.3,257.8v-28.3h5.5l11.4,18.9v-18.9h5.2v28.3h-5.7l-11.3-18.5v18.5H869.3z"></path><path class="st0" d="M918.8,247.4v-4.8H931v11.3c-1.2,1.2-2.9,2.2-5.1,3.1c-2.2,0.9-4.5,1.3-6.8,1.3c-2.9,0-5.5-0.6-7.6-1.9 c-2.2-1.2-3.8-3-4.9-5.3c-1.1-2.3-1.6-4.8-1.6-7.5c0-2.9,0.6-5.6,1.8-7.9c1.2-2.3,3-4.1,5.4-5.3c1.8-0.9,4-1.4,6.7-1.4 c3.5,0,6.2,0.7,8.1,2.2c1.9,1.5,3.2,3.5,3.8,6.1l-5.6,1.1c-0.4-1.4-1.1-2.5-2.2-3.3c-1.1-0.8-2.4-1.2-4.1-1.2 c-2.5,0-4.4,0.8-5.9,2.4c-1.5,1.6-2.2,3.9-2.2,7.1c0,3.4,0.7,5.9,2.2,7.6c1.5,1.7,3.4,2.5,5.8,2.5c1.2,0,2.4-0.2,3.6-0.7 c1.2-0.5,2.2-1,3.1-1.7v-3.6h-6.7V247.4z"></path><path class="st0" d="M967.8,257.8l-6.7-28.3h5.8l4.2,19.5l5.1-19.5h6.7l4.9,19.8l4.3-19.8h5.7l-6.8,28.3h-6l-5.6-21.2l-5.5,21.2 H967.8z"></path><path class="st0" d="M1009.1,257.8v-28.3h20.7v4.8h-15.1v6.3h14v4.8h-14v7.7h15.6v4.8h-21.2L1009.1,257.8L1009.1,257.8z"></path><path class="st0" d="M1068.7,257.8h-6.1l-2.4-6.4H1049l-2.3,6.4h-6l10.9-28.3h6L1068.7,257.8z M1058.3,246.6l-3.8-10.5l-3.8,10.5 H1058.3z"></path><path class="st0" d="M1080.3,257.8v-28.1h5.6V253h14v4.8H1080.3z"></path><path class="st0" d="M1115.8,257.8v-23.5h-8.3v-4.8h22.2v4.8h-8.3v23.5H1115.8z"></path><path class="st0" d="M1141.8,257.8v-28.3h5.6v11.1h11v-11.1h5.6v28.3h-5.6v-12.4h-11v12.4H1141.8z"></path><g>	<path d="M1176,69V58.1h-3.8v-2.2h10.3v2.2h-3.8V69H1176z"></path>	<path d="M1184.1,69V55.9h3.9l2.3,8.9l2.3-8.9h3.9V69h-2.4V58.7l-2.6,10.3h-2.5l-2.6-10.3V69H1184.1z"></path></g><polygon class="st2" points="721.3,127 721.4,126.8 721.4,126.8 "></polygon><path class="st0" d="M358.6,55.9l-54.4,143.7h19.9l15.6-43.5h59.2l16.5,43.5h21.4l-58-143.7C378.8,55.9,358.6,55.9,358.6,55.9z  M345.1,140.6l15.6-42.1c3.3-9.1,5.8-18.2,7.6-27.4c2.2,7.8,5.5,17.7,10,29.8l14.8,39.8h-48V140.6z"></path><polygon class="st0" points="506.5,199.6 525.3,199.6 525.3,134.3 591.8,134.3 591.8,117.3 525.3,117.3 525.3,72.8 602.1,72.8  602.1,55.9 506.5,55.9 "></polygon><polygon class="st2" points="721.3,127 721.4,126.8 721.4,126.8 734.6,114.1 734.6,114.1 794,55.9 768.6,55.9 698.2,127.1  698.2,55.9 679.5,55.9 679.5,199.6 698.2,199.6 698.2,149.8 705.4,142.6 705.3,142.5 "></polygon><polygon class="st2" points="731.3,141.3 771.9,199.6 796.6,199.6 744.7,128.3 "></polygon><polygon class="st2" points="885.2,133.7 963.6,133.7 963.6,116.8 885.2,116.8 885.2,72.8 968.9,72.8 968.9,55.9 866.5,55.9  866.5,199.6 972.2,199.6 972.2,182.6 885.2,182.6 "></polygon><polygon class="st2" points="1145.3,55.9 1145.3,168.7 1070.9,55.9 1051.7,55.9 1051.7,199.6 1069.7,199.6 1069.7,86.7  1144.1,199.6 1163.3,199.6 1163.3,55.9 "></polygon><polygon class="st2" points="705.3,142.5 705.4,142.6 721.3,127 "></polygon><g>	<path class="st4" d="M183.6,220.5v61.3c0,4.9,3.6,2.9,3.6,2.9l14.1-5.8c20.4-10.2,20.4-23.4,20.4-23.4v-33.1v-16.8  c-1,0.6-1.9,1.2-2.9,1.7C218.8,207.4,205.2,215.3,183.6,220.5z"></path>	<path class="st4" d="M137.3,224.7v57.1c0,4.9,3.6,2.9,3.6,2.9l14.1-5.8c20.4-10.2,20.4-23.4,20.4-23.4v-32.2v-0.9v-0.3  c-8.2,1.5-17.3,2.5-27.1,2.6L137.3,224.7L137.3,224.7z"></path>	<path class="st4" d="M91,226.4v55.4c0,4.9,3.6,2.9,3.6,2.9l14.1-5.8c20.4-10.2,20.4-23.4,20.4-23.4v-30.8h-16.5  C112.7,224.7,103.9,224.3,91,226.4z"></path>	<path class="st4" d="M44.8,281.8c0,4.9,3.6,2.9,3.6,2.9l14.1-5.8c20.4-10.2,20.4-23.4,20.4-23.4V228c-11.4,2.6-24.8,7.1-38.1,14.9  C44.8,242.9,44.8,281.8,44.8,281.8z"></path>	<g>		<g>			<path class="st1" d="M175.4,139.7V81.2c0-4.9-3.6-2.9-3.6-2.9l-14.1,5.8c-20.4,10.2-20.4,23.4-20.4,23.4v33.1V198    c12.7,0,28.1-0.3,38.1-1.6V139.7z"></path>			<path class="st1" d="M115.9,197.7c0,0,5.4,0.2,13.3,0.3v-58.2v-77c0-4.9-3.6-2.9-3.6-2.9l-14.1,5.8C91,75.8,91,89,91,89v33.1    v76.2C98.1,197.6,106.4,197.3,115.9,197.7z"></path>			<path class="st1" d="M82.9,199.1v-22.2v-56.8c0-4.9-3.6-2.9-3.6-2.9L65.2,123c-20.4,10.2-20.4,23.4-20.4,23.4v30.5v2.6v33    c3.8-2.5,8-4.8,12.6-7C57.3,205.4,65.5,201.4,82.9,199.1z"></path>			<path class="st1" d="M221.7,158.1v-18.4V16c0-4.9-3.6-2.9-3.6-2.9L204,18.9c-20.4,10.2-20.4,23.4-20.4,23.4v33.1v64.3v18.4v36.6    c4.8-1.2,21.1-5.9,38.1-17.6L221.7,158.1L221.7,158.1z"></path>			<path class="st1" d="M252.2,145.7c-8.7,13.8-19.7,24-30.5,31.4c-17,11.7-33.3,16.4-38.1,17.6c-0.9,0.2-1.5,0.3-1.5,0.3    c-1.7,0.5-4,0.9-6.7,1.3c-10,1.3-25.5,1.6-38.1,1.6c-2.9,0-5.6,0-8.1,0c-7.8-0.1-13.3-0.3-13.3-0.3c-9.5-0.3-17.8,0-24.9,0.6    c-2.9,0.2-5.6,0.5-8.1,0.9c-17.4,2.3-25.6,6.3-25.6,6.3c-4.6,2.2-8.8,4.6-12.6,7c-33.6,21.8-36.6,51.4-36.6,51.4l8.4-10.1    c38.9-44.1,96-41.4,96-41.4h35.7c41.2-0.2,70.4-17.3,70.4-17.3C260.6,171,252.2,145.7,252.2,145.7z"></path>		</g>	</g></g></svg>