<?xml version="1.0" encoding="utf-8"?>
<!-- Generator: Adobe Illustrator 25.2.3, SVG Export Plug-In . SVG Version: 6.00 Build 0)  -->
<svg version="1.1" id="Layer_1" xmlns="http://www.w3.org/2000/svg" xmlns:xlink="http://www.w3.org/1999/xlink" x="0px" y="0px"
	 viewBox="0 0 686 193.4" style="enable-background:new 0 0 686 193.4;" xml:space="preserve">
<style type="text/css">
	.st0{fill:#FFFFFF;}
	.st1{fill:#004B8D;}
	.st2{fill:#BA8C60;}
</style>
<g>
	<path class="st0" d="M73.6,164.4c37,0,67-30.3,67-67.7s-30-67.7-67-67.7s-67,30.3-67,67.7S36.5,164.4,73.6,164.4"/>
	<g>
		<path class="st1" d="M619,82.3l1.1,8.6c0,0-7.5-3.7-16.5-3.2c-5.3,0.3-8.7,2.2-11.7,4.5V136h-12.2V81.9l12.2-1.6v5.3
			c2.4-1.6,6.4-4.3,12.1-4.6C610.9,80.5,617.7,82,619,82.3 M297.9,131.3c4.7-0.4,12.9-1.4,12.9-9.1c0-2.6-1.7-4.7-4.7-6.4
			c-4.1-2.3-9-4.1-11-5c-8-3.2-16.6-7.1-16.6-15.1c0-9.2,6.8-15.6,23.2-15.6c7.3,0,16.1,2.1,16.1,2.1v8.4c0,0-9.4-4.7-17.4-4.7
			c-5.8,0-10.6,1.8-10.6,6.7c0,2.5,1.7,4.5,4.7,6.1c4.1,2.2,9,3.9,11,4.7c8.1,3.2,16.6,7.4,16.6,16.8c0,11.9-11,17-25.3,17
			c-11.5,0-18.6-2.2-18.6-2.2v-4.5C278,130.3,290,131.9,297.9,131.3 M379.6,90.6c0,0-9.2-4.7-17.1-4.7c-14.8,0-17.8,11-17.8,17.2
			c0,7,0.4,13.9,5,19.2c4.5,5.2,13.8,9,22.7,9c3.7,0,8.4-0.8,8.4-0.8v4.5c0,0-6.3,2-15.5,2c-24.6,0-33.8-12.5-33.8-30.1
			c0-14.6,7.4-26.8,27.9-26.8c12.3,0,20.3,2.1,20.3,2.1V90.6z M554.7,99.1c0-6.8-4.6-13.3-12.2-13.3c-11.1,0-13.7,8.9-14.3,13.3
			H554.7z M566.6,134.7c0,0-6.6,2.3-17.8,2.3c-20.7,0-32.8-10.7-32.8-30.1c0-16.7,7.8-26.8,28.4-26.8c13.4,0,23.9,7.9,23.9,21.8v2.4
			h-40.2c0,5.8,0.9,13.3,5.7,18.6c4.6,5.1,13.1,8.3,22.2,8.3c4.5,0,10.5-1.6,10.5-1.6V134.7z M452.6,83l12.2-1.6l19.8,40.7
			l18.6-40.7h9.1l-26,55.6h-7.4L452.6,83z M418.7,131.3c14.8,0,16-13.5,16-22.4c0-9.5-2.3-23-16.3-23c-15.3,0-16.1,13.4-16.1,23
			C402.3,117.6,404.9,131.3,418.7,131.3 M389,108.9c0-17,8.6-28.7,29.3-28.7c18.6,0,29.7,11.2,29.7,28.6c0,17.5-9.6,28.3-29.4,28.3
			C399.6,137,389,125.4,389,108.9 M248.5,63.4c0-3.9,3.8-7,8.6-7c4.6,0,8.5,3.1,8.5,7c0,4.1-3.9,7-8.5,7
			C252.3,70.5,248.5,67.3,248.5,63.4 M251.5,81.6l12.2-1.6v55.7h-12.2V81.6z M192.6,57.6c12.6,0,24.7,3,33.2,9.6
			c9.1,7.1,14.2,18.2,14.2,29.4c0,11.2-4.8,22.4-14,29.5c-8.5,6.6-20.8,9.5-33.3,9.5h-23V57.6H192.6z M183.2,63.5V130
			c8.9,0,17.2-0.7,22.9-3.2c12.5-5.6,18.8-17.4,18.8-30c0-12.6-6.3-24.4-18.8-30C200.4,64.2,192.1,63.5,183.2,63.5 M627,81.6
			l11.7-1.5l15.9,40l18.1-40h9l-25.6,56.6c-4.2,9-11.8,20.9-25.5,20.9h-2v-8.3c13.7,0.9,19.3-9.3,19.3-13.4c0-3.1-1.6-6.5-1.6-6.5
			L627,81.6z"/>
		<path class="st2" d="M50.8,66.1C47.4,69.5,44,73,40.7,76.5c10.6,11.6,21.6,22.8,32.8,33.8c11.2-11,22.2-22.2,32.8-33.8
			c-3.3-3.5-6.6-7-10.1-10.3c-7.7,7.2-15.2,14.5-22.7,21.9C66.1,80.7,58.5,73.4,50.8,66.1 M61.3,56.8c4.2,3.4,8.3,7,12.3,10.7
			c4-3.6,8.1-7.2,12.2-10.6c-4-3.3-8-6.5-12.3-9.5C69.3,50.3,65.3,53.5,61.3,56.8 M31.7,86.9c-2.6,3.2-5.1,6.6-7.5,10
			c13.6,18.9,30.4,35.5,49.4,48.9c18.9-13.4,35.7-30.1,49.2-49c-2.3-3.4-4.8-6.7-7.3-9.9c-12.5,15.6-26.7,30-41.7,43.2
			C58.5,116.9,44.3,102.5,31.7,86.9 M12.5,96.8c0-32.9,27.6-61.1,60.6-61.1c33,0,60.7,28.2,60.7,61.1c0,32.9-27.7,61-60.7,61
			C40.2,157.7,12.6,129.6,12.5,96.8 M4.2,96.7c0-38.3,30.9-69.3,69-69.3c38.1,0,69,31,69,69.3s-30.9,69.3-69,69.3
			C35.1,166,4.2,135,4.2,96.7 M8.9,96.7c0,35.7,28.8,64.6,64.3,64.6c35.5,0,64.3-28.9,64.3-64.6s-28.8-64.6-64.3-64.6
			C37.7,32.1,8.9,61,8.9,96.7"/>
	</g>
</g>
</svg>
